<svg version="1.1" xmlns="http://www.w3.org/2000/svg" x="0px" y="0px" viewBox="0 0 1000 1000" enable-background="new 0 0 1000 1000" xml:space="preserve">
<metadata> Svg Vector Icons : http://www.onlinewebfonts.com/icon </metadata>
<g><g transform="translate(0.000000,511.000000) scale(0.100000,-0.100000)"><path d="M4182.7,4114.4c-1848.4-178.1-3200-870.7-3758.1-1927.5c-112.8-213.7-259.2-657-300.8-910.3C3.1,554.2,345.5,19.9,1038.1-152.3c97-25.7,178.1-45.5,182.1-47.5c4-2-87.1-180.1-201.9-395.8c-332.5-629.3-447.3-926.2-447.3-1155.7c2-995.4,629.3-1826.6,1583.2-2093.7l188-53.4h2641.9h2641.9l160.3,43.5c765.9,211.7,1335.8,777.7,1531.7,1519.8c45.5,178.1,85.1,583.8,67.3,708.5c-31.7,233.5-213.7,627.3-510.6,1110.2c-95,150.4-170.2,283-170.2,290.9c0,9.9,25.7,17.8,55.4,17.8c106.9,0,370.1,79.2,532.3,158.3C9694.2,148.5,9900,520.5,9900,1048.9c0,617.5-265.2,1248.7-728.3,1729.6c-655,678.8-1664.3,1120.1-2980.3,1300.2c-195.9,27.7-419.5,35.6-1088.4,37.6C4639.9,4120.3,4226.3,4118.3,4182.7,4114.4z M6122.1,3779.9c890.5-102.9,1642.6-352.3,2234.3-744.1c777.7-512.6,1238.8-1256.6,1238.8-1994.8c0-502.7-255.3-815.3-754-926.2c-100.9-21.8-239.5-31.7-443.3-31.7c-906.4,2-1211.1,211.7-1250.7,856.9c-17.8,306.7,37.6,552.1,176.1,765.9c221.7,344.3,0,601.6-655.1,767.8c-403.7,100.9-1157.7,192-1634.6,193.9c-696.6,2-1682.1-150.4-2052.2-318.6c-310.7-140.5-433.4-376-302.8-587.8c148.4-239.5,207.8-443.3,207.8-712.4c0-720.3-306.7-967.7-1197.3-963.8c-740.1,4-1128,209.8-1248.7,664.9c-59.4,219.7-27.7,516.5,93,882.6C681.9,2078,953,2465.9,1350.8,2796.4c734.2,611.5,1701.9,938,3010,1021.2C4661.6,3835.3,5857,3811.6,6122.1,3779.9z M5488.9,2335.3c174.2-15.8,322.6-29.7,332.5-29.7c7.9,0,13.9-146.4,13.9-326.5v-326.5h-851h-851v324.6v322.6l292.9,23.7c160.3,13.9,308.7,27.7,330.5,29.7C4861.5,2368.9,5203.9,2361,5488.9,2335.3z M6359.6,2226.4c348.3-65.3,629.3-164.2,708.5-253.3c33.7-37.6,31.7-41.6-31.7-136.6c-201.9-300.8-261.2-940-122.7-1337.8C7080,19.9,7456-187.9,8247.6-233.4l85.1-4l205.8-326.5c229.6-366.1,439.3-759.9,500.7-944c104.9-312.7,2-860.8-233.5-1236.9c-259.2-411.6-657-696.6-1141.9-821.3c-126.7-33.7-316.6-35.6-2679.5-35.6c-2347.1,0-2552.9,2-2675.6,33.7c-601.6,154.4-1058.7,538.3-1282.4,1078.5c-140.5,336.4-180.1,767.8-91,999.4c79.2,207.8,201.9,461.1,421.5,872.7l209.8,389.9h190c809.4,0,1238.8,255.3,1389.2,825.2c59.4,221.6,59.4,643.2,0,866.8c-41.6,154.4-126.7,354.2-190,439.3c-31.7,41.6-29.7,45.5,51.5,102.9c95,69.3,366.1,162.3,609.5,207.8c91,17.8,172.2,31.7,182.1,31.7c9.9,0,17.8-180.1,17.8-399.8c0-381.9,2-401.7,43.5-445.3l41.6-45.5h1084.5h1084.5l39.6,51.5c39.6,49.5,41.6,77.2,41.6,457.1V2266l45.5-7.9C6221.1,2252.1,6294.3,2238.3,6359.6,2226.4z"/><path d="M4766.5,742.2C3951.2,663,3262.5,71.3,3036.9-742c-122.7-443.3-67.3-955.8,150.4-1393.2c104.9-209.8,174.1-308.7,346.3-488.8c253.3-263.2,587.7-463.1,936-554.1c249.4-63.3,641.2-73.2,892.5-21.8c932.1,192,1597,999.4,1601,1945.3c2,536.3-193.9,1017.2-564,1393.2c-348.3,356.2-740.1,548.2-1227,603.6C4980.3,764,4986.2,764,4766.5,742.2z M5221.7,425.6C6256.7,261.3,6897.9-787.6,6565.4-1777c-182.1-546.2-639.2-967.7-1197.3-1106.3c-239.5-57.4-583.8-57.4-809.4,2c-308.7,81.1-593.7,249.3-803.5,469c-285,302.8-443.3,663-467,1066.7C3260.5-866.7,3420.8-433.3,3753.3-85C4141.2,320.7,4683.4,508.7,5221.7,425.6z"/><path d="M5120.8-13.8c-53.4-17.8-97-87.1-97-156.3c0-61.4,87.1-136.6,158.3-136.6c75.2,0,158.3,77.2,158.3,144.5c0,63.3-65.3,144.5-124.7,156.3C5192-1.9,5148.5-3.9,5120.8-13.8z"/><path d="M4434.1-114.7c-95-100.9-23.8-251.3,118.7-251.3c81.1,0,154.4,71.3,154.4,148.4c0,23.8-17.8,67.3-41.6,97C4612.2-51.4,4495.4-49.4,4434.1-114.7z"/><path d="M5647.2-330.4c-140.5-120.7,2-328.5,178.1-261.2c53.4,21.8,89.1,122.7,65.3,190c-17.8,49.5-23.7,51.4-61.3,31.7c-39.6-19.8-41.6-19.8-15.8,11.9c33.7,39.6,25.7,47.5-51.5,63.3C5716.4-286.9,5690.7-294.8,5647.2-330.4z"/><path d="M3984.8-488.7c-146.4-79.2-100.9-292.9,63.3-292.9c45.5,0,75.2,17.8,112.8,61.4c67.3,79.2,65.3,126.6-5.9,197.9C4093.7-461,4050.1-453.1,3984.8-488.7z"/><path d="M5953.9-900.4c-81.1-81.1-69.3-184,29.7-249.3c59.4-39.6,130.6-25.7,188,35.6c85.1,93,15.8,253.3-110.8,253.3C6019.2-860.8,5977.7-876.6,5953.9-900.4z"/><path d="M3781-1092.3c-13.9-5.9-37.6-35.6-55.4-69.3c-67.3-128.6,55.4-269.1,188-215.7c99,41.6,128.6,160.3,59.4,247.4C3933.4-1080.4,3852.2-1062.6,3781-1092.3z"/><path d="M5906.4-1535.6c-73.2-57.4-73.2-176.1,0-233.5c69.3-55.4,136.5-51.5,195.9,7.9c98.9,97,33.6,267.2-98.9,267.2C5979.6-1494.1,5936.1-1511.9,5906.4-1535.6z"/><path d="M3856.2-1593c-61.4-61.3-53.4-184,13.9-237.5c146.4-114.8,318.6,77.2,201.8,225.6C4020.4-1539.6,3915.6-1533.6,3856.2-1593z"/><path d="M5502.7-2042.2c-63.3-55.4-65.3-162.3-4-223.6c51.5-51.4,138.5-51.4,205.8,2c63.3,49.5,73.2,170.2,15.8,221.6C5672.9-1998.7,5554.2-1998.7,5502.7-2042.2z"/><path d="M4283.7-2069.9c-69.3-55.4-71.2-158.3-2-225.6c97-97,247.4-31.7,247.4,108.8c0,59.4-11.9,85.1-51.5,116.8c-29.7,23.8-73.2,41.5-97,41.5C4356.9-2028.4,4313.3-2046.2,4283.7-2069.9z"/><path d="M4885.3-2246.1c-55.4-55.4-51.5-160.3,5.9-213.7c93-87.1,239.5-37.6,263.2,89.1C5180.1-2238.1,4984.2-2147.1,4885.3-2246.1z"/></g></g>
</svg>