<svg version="1.2" xmlns="http://www.w3.org/2000/svg" viewBox="0 0 595 842" width="595" height="842">
	<title>Angolo della Pizza Monocolore-1-ai</title>
	<style>
		.s0 { fill: #ffffff } 
		.s1 { fill: #1d1d1b } 
	</style>
	<g id="Livello 1">
		<path id="&lt;Path&gt;" class="s0" d="m251.5 531.7c1.1 1.2-7.4 35.4-7.6 37.8-0.3 2.4 1.2 2.8 4.9 2.2 3.7-0.6 10.1-5.9 14.7-18 4.6-12.1 1.6-23.1-3.9-27.2-5.5-4.1-19.6-1.6-27.2 2.4-7.6 4-12.5 11.5-14.5 17.1-2 5.5 1 17.9-0.5 18.8-1.5 0.9-7.7-0.5-10.3-4.3-2.6-3.8-3.7-14.9 6.6-25.3 10.4-10.5 25-14.7 32.3-15.9 7.3-1.3 32.8-3.6 33 23.7 0.2 27.4-36.4 34.4-36.4 34.4 0 0-7.1 37.1-7.4 37.8-0.2 0.7-1 0.9-3.4 0.8-2.4-0.1-3.6 1-7.7 3-4.2 1.9-6.2 1.7-7.1 0-0.9-1.7 0.7-5.9 0.7-5.9 0 0 15.2-76.4 15.9-78.3 0.7-1.8 1.9-1 4.7-0.7 2.8 0.4 8.5-2.1 8.5-2.1 0 0 3.5-1.4 4.7-0.3z"/>
		<path id="&lt;Path&gt;" class="s0" d="m303.3 538.2c0.9 0.9-8 44.3-8.1 47.1-0.2 2.8 2.1 1.9 3.1 1.8 1.1-0.2 3.6-1.1 5.4 0.1 1.9 1.1-2.6 12-16.1 13.1-13.4 1.2-10.5-13.4-10.5-13.4 0 0 7.4-44.2 9.3-46.3 2-2.2 4.3-0.9 7.3-0.9 3 0 6.7-2.1 6.7-2.1 0 0 2-0.4 2.9 0.6z"/>
		<path id="&lt;Path&gt;" class="s0" d="m358 528.5c-0.4 2.3-23.4 43.4-24.8 47.2-1.4 3.9 2.3 3.8 2.3 3.8 0 0 9.6-2.3 10.7-3 1-0.8 0.6-2 0.6-2 0 0-2.7-0.4-2.7-2.2 0-1.8 2.1-5.3 7.4-6.6 5.3-1.4 5.5 2 5.5 2 2.3 9.3-10 16.3-10 16.3l-28.5 8.3c0 0-4.9 1.9-6.5 1.1-1.7-0.8-1.1-3.7-1.1-3.7 0 0 25.1-47.8 26-49.5 0.9-1.7-0.5-3.4-2.8-3.4-2.2-0.1-9 2.4-9.7 3.1-0.7 0.7 0 1.9 1.5 2.3 1.5 0.3 1.4 3.2-1 5.5-2.4 2.3-11.1 5.9-11.7-0.8-0.6-6.6 6.4-12.2 9.9-13 3.5-0.8 33.1-7.9 33.1-7.9 0 0 2.3 0.2 1.8 2.5z"/>
		<path id="&lt;Path&gt;" class="s0" d="m408.9 517c1.5 0.7 0.7 2.1 0 3.4-0.8 1.3-24.5 41.7-23.4 44.9 1.2 3.2 12.1-1.4 13.1-3.2 1-1.7-1.6-1.6-2.7-2.3-1.2-0.7 1.6-5.5 6.9-6.5 5.4-1 6.3 2.6 5.3 7.7-1.1 5.1-11.4 10.3-11.4 10.3 0 0-30.4 8.4-32.9 7.4-2.6-1.1 0-4.2 0-4.2 0 0 23.2-44 24.4-45.4 1.1-1.4-1-3-2.4-3.1-1.4-0.2-8 1.5-9.1 2.1-1.2 0.6-1 2.6 0.2 2.5 1.3-0.1 2.1 2.8-1.4 6.3-3.4 3.6-12 3.3-9.9-4.7 2.1-7.9 10.4-10 10.4-10l30.3-5.9c0 0 1.1 0 2.6 0.7z"/>
		<path id="&lt;Path&gt;" class="s0" d="m453.9 512.4c0.8-1.3 10.5-0.6 13.4-0.6 2.9 0 4.2 1 4.3 2.7 0.2 1.7-5.5 32.4-6.2 35.2-0.7 2.7 0.9 3.5 3.2 3.6 2.3 0.1 3.9-0.5 3.6 2.8-0.2 3.3-4.1 6.9-11.6 7.1-7.5 0.2-11.4-7.5-12.5-8-1-0.4-1.3 1.4-3.7 3.8-2.4 2.5-10.5 7.3-21 7-10.4-0.2-18.3-20.2-2.7-41.6 15.6-21.4 32.2-8.1 32.2-8.1 0 0 0.3-2.5 1-3.9z"/>
		<path id="&lt;Path&gt;" class="s1" d="m450.7 518.1c1.4 0 2.4 2.7 2.4 2.7 0 0-4.9 25.9-5.1 26.1-0.2 0.3-3.6 6.7-8.2 8.1-4.6 1.4-13.7 0-7.9-19.4 5.9-19.4 17.4-17.4 17.4-17.4 0 0 0 0 1.4-0.1z"/>
		<path id="&lt;Path&gt;" class="s0" d="m451.1 569.5c0.5 0 0.9 3.9-1 5.3-2 1.4-41.8 13.4-57.5 18.8-15.7 5.4-94.3 36.7-103.1 39.3-8.8 2.7-15.6 9.4-20.5 9.1-5-0.4-5-11.4 1.8-16.8 6.7-5.5 19.8-8.9 65.6-24.8 45.8-15.9 112.4-31.5 112.4-31.5 0 0 1.8 0.6 2.3 0.6z"/>
		<path id="&lt;Compound Path&gt;" class="s0" d="m264.9 438.2c4.5-4.2 9.4-7.9 15.4-9.7 5.4-1.7 10.3 0.9 11.7 6.5 0.3 1.2 0.1 2.9-0.5 4.1q-4.4 10.9-9 21.7c-2.6 5.8-5 11.7-5.5 18.2-0.4 3.8 1 4.8 4.4 3 7.7-4.2 13.6-10.2 18.2-17.5 2-3.2 3.5-6.8 5.4-10.1 5.3-9.6 12.2-17.8 21.9-23.3 5.7-3.2 11.9-4.9 18.6-3.5 3.9 0.9 6.6 3.1 7.7 6.7 0.9 3.2 1 6.7 1.2 10.1 0 0.7-1.1 1.4-1.7 2.2-0.6-0.7-1.7-1.2-1.9-1.9-0.5-1.7-0.5-3.6-0.8-5.3-0.9-4.2-3.5-6.3-7.7-6.3-6.1 0.1-10.7 3.4-14.6 7.5-7.8 8.5-13.2 18.3-15.2 29.8-0.2 0.8-0.3 1.7-0.3 2.5 0 3.1 0.3 6.2 3.4 7.7 3.2 1.6 6.4 0.8 9.1-1.3 8.2-6.6 15.2-14.3 18.6-24.6 0.9-2.6 1.7-5.2 2.5-7.8 4.3-0.6 11.2 4.2 11.7 8.5 0.2 1.3-0.4 2.9-1 4.1-8.4 14.8-16.8 29.5-25.2 44.3-0.5 0.8-0.9 1.7-1.6 2.9 8.4 4.2 16.7 8.4 25.1 12.6-1 5-9.4 8.8-14.1 6-5.1-3-10-6.1-15-9.2-0.4-0.3-0.9-0.5-1.5-0.9-2 2.4-3.9 4.9-5.9 7.3-9 11-20.3 17-34.8 16.3-4.5-0.3-9-1.1-12.7-4-5.8-4.6-7.2-13.8-3-20.9 5.5-9.1 14.1-13.3 24.2-14.8 8.5-1.3 16.9-0.4 25.1 2.3 1.2 0.4 2.3 0.7 3.8 1.1 3.1-6.7 6-13.4 9.3-20.8-1 0.6-1.4 0.9-1.8 1.2-2.6 1.8-4.9 4-7.7 5.5-9.7 5.3-20.3-0.4-21.4-11.4-0.1-1.3-0.2-2.7-0.4-4.7-0.9 1.1-1.5 1.8-2 2.5-3.9 4.8-7.9 9.6-13.2 13-1.8 1.1-3.8 2.1-5.8 2.5-6.9 1.3-12.1-2.6-12.8-9.6-0.6-5.4 0.8-10.5 2.6-15.5 2.1-6 4.7-11.8 7-17.8q1.4-3.5 2.3-7.2c0.2-0.8-0.1-2.3-0.6-2.6-0.7-0.3-2-0.1-2.8 0.3-1.7 0.9-3.4 2-4.7 3.4-5.7 5.7-11.8 11.2-16.7 17.5-2.8 3.5-4 8.4-5.2 12.9-1.5 5.5-2.4 11.3-3.3 16.9-0.3 1.6-1.1 2.1-2.2 1.4-2.2-1.1-4.3-2.5-6.1-4-0.7-0.6-0.8-2-0.8-3 0.5-9.6 3.6-18.5 6.7-27.4 3.1-8.8 6.3-17.5 9.4-26.2 0.6-1.6 1.4-2.3 3-1.8 3.8 1.2 6.8 3.5 8.1 7.2 0.6 2-0.2 4.4-0.4 6.6 1.1-0.9 2.3-2.1 3.5-3.2zm-63.6 3.5c-1 0.1-2 1.2-2.9 1.9-10.4 9.6-20.6 19.3-31.2 28.6-10.6 9.4-21.8 18-34.7 24.1-11.9 5.6-24.2 8.5-37.3 5.1-17.3-4.5-25.4-19.3-23.6-35.4 1.9-16.2 10.1-28.2 25.2-34.9 9.9-4.4 20.4-6.1 30.8-1 4.1 2 7.2 5.2 9.3 9.1 1.8 3.3 1.2 6.9 0.2 11.1-1.3-1.7-2.2-2.9-3.2-4.1-3.1-4-6.8-7.4-11.4-9.5-7.7-3.5-15.4-2.4-22.9 0.2-13.3 4.5-22.5 16.9-23.2 30.7-0.7 14.4 8.7 25.4 23.3 27.4 11.3 1.5 21.6-1.3 31.4-6.6 14.3-7.8 26.7-18.1 38.7-29 5.2-4.8 10.5-9.7 15.7-14.6 0.3-0.3 0.6-0.7 0.9-1q-0.1-0.4-0.2-0.7c-3.8 0.8-7.7 1.4-11.5 2.6-5.4 1.6-10.8 3.5-16.1 5.4-2.8 1-7.8-1.8-8-4.7 0-0.6 1.2-1.5 2-1.7 9-1.8 18.1-3.7 27.2-5.3 3.8-0.7 7.6-0.9 11.4-1.6 1.5-0.3 3.1-1.1 4.1-2.2 14.6-14.2 29.3-28.4 43.7-42.9 6.9-7 13.4-14.4 20.1-21.7 1.2-1.4 2.3-1.4 3.3-0.1 1.6 2 3.1 4 4.5 6.2 1.3 2.1 0.4 4.3-0.6 6.3-4 7.8-7.9 15.8-12.2 23.5-10.6 18.7-21.6 37.2-31.9 56-4.2 7.6-7.2 15.8-10.4 23.8-1.5 4.1-1.7 8.2 2.3 11.5 0.4 0.3 0.7 1.6 0.4 1.9-0.4 0.6-1.4 1-2.1 0.9-7.4-0.4-11.2-4.3-11.3-11.9-0.2-6.5 1.3-12.8 4.1-18.5 4.1-8.9 8.8-17.5 13.2-26.2 0.4-0.8 0.8-1.5 1.5-2.8-6.6 0-12.6 0-18.6 0.1zm248.6 35.1c-4.3 5.4-9 10.4-15.7 13-7.6 2.8-13.4-0.9-13.7-9-0.3-6.8 1.1-13.5 3.7-19.7 4.1-10.3 8.8-20.4 13.7-30.4 6.3-13 12.8-25.9 17.1-39.7 0.6-1.7 1.5-1.9 2.9-1.7 6.4 1.1 10 7.6 7.2 13.4-5.4 11-10.9 21.9-16.4 32.9-6 12.1-12.3 24.2-16.1 37.4-0.6 2.1-0.9 4.3-1 6.5-0.2 2.6 1.2 3.8 3.7 2.9 2.6-1 5.4-2.3 7.4-4.2 7-6.2 12.3-13.7 15.8-22.5 5-12.9 13.4-22.8 26.9-27.5 4.9-1.7 9.9-1.8 14.7 0.3 3.5 1.6 5.2 4.5 6 8.1 0.4 1.4 0.8 2.9 1.5 4.2 2.2 4.6 2.5 9.4 1.5 14.2-2.6 13.8-9.2 25.1-21.5 32.3-13.3 7.8-28.4 0.3-30.9-14.8-0.2-1.1-0.4-2.2-0.7-3.9-2.3 3.1-4.1 5.7-6.1 8.2zm-55.3 10.7c-11.9 6.9-25.3 1.2-29.6-11.8-2.6-7.8-1.4-15.2 1.9-22.3 4.9-11 12.4-19.6 23.7-24.4 4.2-1.8 8.6-2.2 13-1.7 5.2 0.5 8.8 4 9.9 9.2 0.3 1.5 1.1 2.9 1.5 4.5 0.9 3.1 1.7 6.3 2.4 8.8-2.1 16.6-8.7 29.6-22.8 37.7zm-234.6-96.8c4.2-8.8 8.8-17.3 12.8-26.1 3.6-7.7 6.6-15.7 9.7-23.6 0.6-1.7 1.4-2 3-1.5 5.9 1.7 8.2 6.5 5.5 11.9-7.1 14.5-14.4 28.7-21.2 43.3-3.1 6.6-5.1 13.7-7.3 20.6-0.4 1.2-0.1 3.7 0.7 4.1 1.1 0.6 3.1 0.3 4.4-0.4 4.8-2.1 8.1-5.9 11-10 2.9-4.1 5.5-8.4 8.2-12.6 0.6-1 1.1-2.4 2.7-1.4 1.4 0.9 0.5 2.1-0.2 3-4.7 7.6-9 15.5-15.4 21.8-3.1 3-6.4 5.6-10.6 6.8-5.4 1.6-9.5-0.9-10.4-6.5-0.2-1.1-0.2-2.2-0.3-3 0.6-9.6 3.5-18.1 7.4-26.4zm37.4-27.5q-0.7-0.6-1.2-1.3c-2-2.3-1.9-5.2 0-6.8 2.2-1.8 5.8-1.4 7.5 0.9q0.5 0.6 0.8 1.3c2.4 5.1-0.4 13.4-5.9 16.1 2.3-4.3 1.9-7-1.2-10.2z"/>
		<path id="&lt;Path&gt;" class="s0" d="m152.6 417.1c0.6-9.6 3.5-18.1 7.4-26.4 4.2-8.8 8.8-17.3 12.8-26.1 3.6-7.7 6.6-15.7 9.7-23.6 0.6-1.7 1.4-2 3-1.5 5.9 1.7 8.2 6.5 5.5 11.9-7.1 14.5-14.4 28.7-21.2 43.3-3.1 6.6-5.1 13.7-7.3 20.6-0.4 1.2-0.1 3.7 0.7 4.1 1.1 0.6 3.1 0.3 4.4-0.4 4.8-2.1 8.1-5.9 11-10 2.9-4.1 5.5-8.4 8.2-12.6 0.6-1 1.1-2.4 2.7-1.4 1.4 0.9 0.5 2.1-0.2 3-4.7 7.6-9 15.5-15.4 21.8-3.1 3-6.4 5.6-10.6 6.8-5.4 1.6-9.5-0.9-10.4-6.5-0.2-1.1-0.2-2.2-0.3-3z"/>
		<path id="&lt;Path&gt;" class="s0" d="m198.6 373.4c2.3-4.3 1.9-7-1.2-10.2q-0.7-0.6-1.2-1.3c-2-2.3-1.9-5.2 0-6.8 2.2-1.8 5.8-1.4 7.5 0.9q0.5 0.6 0.8 1.3c2.4 5.1-0.4 13.4-5.9 16.1z"/>
		<path id="&lt;Path&gt;" class="s1" d="m316.5 511.2c-7.2 11.9-15.2 22.7-30.6 23.8-3 0.2-6.3-0.3-9.2-1.4-7.8-3.1-9.6-12-3.9-18.2 3.7-3.9 8.4-5.9 13.5-7.3 10-2.6 19.7-1.7 29.1 2.4 0.3 0.1 0.6 0.4 1.1 0.7z"/>
		<path id="&lt;Path&gt;" class="s1" d="m248.3 396.8c-5.6 8.7-11.2 17.3-16.7 25.9-2.7 4.2-5.2 8.5-7.9 12.6-0.5 0.8-1.8 1.5-2.7 1.6-4.8 0.1-9.5 0-14.3 0q-0.2-0.3-0.4-0.6 20.7-20 41.4-39.9 0.3 0.2 0.6 0.4z"/>
		<path id="&lt;Path&gt;" class="s1" d="m492.7 451.2c2.6-2.4 4.9-5 7.6-6.8 3.1-2.1 5.1-0.7 5 2.9-0.2 7.2-2.9 13.6-6.5 19.7-3.3 5.5-7.3 10.4-13 13.7-7.9 4.5-15.7 0.8-17.1-8.1-0.9-6.1 0.7-11.7 3-17.1 3.2-7.7 7.5-14.7 14.8-19.3 3.3-2.1 6.8-3.5 10.8-3.2 2.2 0.2 3.7 1.1 4.3 3.5-3.6 1.4-7.4 2.9-8.7 6.7-0.9 2.5-0.2 5.6-0.2 8z"/>
		<path id="&lt;Path&gt;" class="s1" d="m409 436.5c-9.4 4-10.4 7-8.4 15.4 0.3-0.5 0.5-0.9 0.8-1.3 2.1-2.1 4.1-4.6 6.5-6.3 2.9-2 5.3-0.5 4.8 2.9-0.8 4.7-1.8 9.5-3.5 14-2.6 6.8-6.9 12.6-12.6 17.3-3.4 2.7-7 4.4-11.5 3.9-4.5-0.6-7.7-3.6-8.6-8.2-1.7-8.6 1.1-16.3 5-23.7 3.4-6.5 7.7-12.3 14.6-15.4 2.8-1.2 6-1.7 9.1-1.9 2.2-0.2 2.9 0.8 3.8 3.3z"/>
		<g id="&lt;Group&gt;">
			<path id="&lt;Compound Path&gt;" fill-rule="evenodd" class="s0" d="m103.3 509.3q-1 3.4-2.2 6.8-0.9 3.3-1.8 6.9-0.9 3.6-1.7 7.3-0.8 3.7-1.3 7.3-0.6 3.6-0.8 7.1-0.1 2.2 0 4.5 0.1 2.3 1 4.4 0.4 0.7 0.1 1.3-0.3 0.7-1.1 0.7-0.7 0-1.3-0.7-0.6-0.7-1-1.9-0.5-1.1-0.8-2.5-0.2-1.4-0.4-2.9-0.2-1.4-0.2-2.8 0-1.3 0-2.4 0.2-2.4 0.5-4.7-0.8 1.4-1.9 3.3-1.2 1.9-2.5 3.5-1.4 1.7-3 2.8-1.7 1.1-3.5 1.1-0.5 0-1.1-0.1-0.5-0.1-1.1-0.3-1.7-0.7-2.7-2.1-0.9-1.3-1.2-2.9-0.2-1.7 0-3.5 0.3-1.9 0.8-3.7 0.6-1.7 1.4-3.3 0.8-1.6 1.6-2.7 0.7-1.1 1.5-2 0.8-1 1.8-1.8 1-0.8 2.2-1.3 1.1-0.5 2.4-0.6 1.9 0 3.2 0.6 1.4 0.7 2.3 2.3 1.4-3.2 2.7-6.7 1.3-3.5 2.5-7 0.9-3.3 1.9-6.5 0.9-3.2 2-6.4 0.3-0.9 1.3-0.9 0.4 0 0.9 0.2 0.5 0.2 0.9 0.6 0.3 0.4 0.5 1 0.2 0.6 0 1.3-0.8 3.4-1.9 6.7zm-13 22.7q-0.1-0.4-0.1-0.7 0-1.4-0.2-2.4-0.1-0.9-1.3-0.9-1.4 0-2.6 0.8-1.3 0.9-2.2 1.9-1.8 1.9-3 4.4-1.1 2.4-1.7 5-0.1 0.4-0.2 1.2-0.1 0.7-0.1 1.5 0 0.7 0.2 1.2 0.2 0.5 0.8 0.6 1.1 0 2.2-0.7 1.1-0.7 2.1-1.9 1.1-1.1 2-2.5 0.9-1.4 1.7-2.8 0.8-1.4 1.5-2.6 0.6-1.3 0.9-2.1z"/>
			<path id="&lt;Compound Path&gt;" fill-rule="evenodd" class="s0" d="m206.6 534.8q-0.6 1-1.5 2.5-1 1.4-2.3 2.8-1.2 1.5-2.7 3-1.4 1.4-3 2.5-1.5 1.1-3.1 1.8-1.7 0.7-3.2 0.7-2.1 0-3.8-1.5-1.6-1.4-2-3.4-0.4-2 0-4.3-0.8 1.3-1.9 2.8-1.1 1.5-2.4 2.8-1.3 1.3-2.8 2.2-1.5 0.8-3.1 0.8-0.2 0-0.5 0-0.2 0-0.5 0-2.3-0.5-3.4-1.9-1.2-1.5-1.6-3.4-0.1-0.8-0.1-1.7-0.3 0.4-0.6 0.8-1.3 1.7-2.9 3.4-1.6 1.7-3.3 3-1.6 1.3-3.4 2.2-1.7 0.8-3.4 0.8-1.5 0-2.9-0.8-1.4-0.9-2.6-2.9-0.9-1.5-1.2-3.2-0.2-1.7-0.1-3.5 0-0.6 0.1-1.2-0.7 1.1-1.5 2.2-1.4 1.7-2.9 3.4-1.6 1.7-3.3 3-1.7 1.3-3.4 2.2-1.8 0.8-3.4 0.8-1.6 0-3-0.8-1.4-0.9-2.6-2.9-0.8-1.5-1.1-3.2-0.3-1.7-0.1-3.5 0-0.1 0-0.2-0.3 0.4-0.6 0.9-1.9 2.5-4.3 4.3-2.5 1.8-5.3 2.9-2.9 1-5.9 1-2.4-0.1-4.6-1.1-2.2-1-3.6-3.1-1.3-2.2-1.4-4.9 0-2.6 0.7-5 0.5-1.8 1.7-3.7 1.1-1.8 2.6-3.2 1.6-1.5 3.5-2.4 1.9-0.9 3.9-0.9 1.4 0 2.6 0.6 1.2 0.6 2 1.6 0.8 0.9 1.1 2.3 0.2 1.3-0.3 2.8-0.4 1.3-1.5 2.6-1 1.3-2.3 2.3-1.4 1-3 1.7-1.6 0.6-3.1 0.6-2.2 0-3.8-1.3-0.3 0.9-0.4 1.9-0.1 0.9 0 1.8 0.2 1 0.6 1.7 0.4 0.7 1.1 1.1 0.7 0.4 1.5 0.6 0.8 0.1 1.7 0.1 2.9 0 5.7-0.9 2.7-0.9 5.1-2.6 2.4-1.6 4.4-3.8 1.9-2.2 3.1-4.7 0-0.2 0.1-0.3 0.9-3.7 2.2-7.2 1.4-3.8 2.9-7.5 1.5-3.7 3-7.4 1.6-3.7 2.9-7.5 0.3-0.7 1-0.7 0.4 0 1 0.3 0.5 0.3 0.9 0.8 0.4 0.5 0.6 1.1 0.2 0.5 0 1.1-1.1 3.1-2.4 6.1-1.4 3-2.6 6-1.5 3.8-3 7.7-1.4 3.8-2.5 7.8-0.3 1.4-0.8 2.9-0.4 1.6-0.6 3.2-0.3 1.5-0.3 3.1 0 1.5 0.5 2.9 0.1 0.2 0.3 0.5 0.1 0.1 0.1 0.2 0.5 0.2 0.9 0.2 0.5 0.1 1 0.1 2.3-0.1 4.7-1.6 2.4-1.5 4.5-3.5 2.2-2 3.9-4.4 1.8-2.3 2.9-4.1 0.1-0.2 0.2-0.4 0.9-3.5 2.1-6.9 1.4-3.8 2.9-7.5 1.5-3.7 3.1-7.4 1.5-3.7 2.9-7.5 0.2-0.7 0.9-0.7 0.5 0 1 0.3 0.5 0.3 0.9 0.8 0.5 0.5 0.7 1.1 0.1 0.5 0 1.1-1.1 3.1-2.5 6.1-1.4 3-2.6 6-1.5 3.8-2.9 7.7-1.4 3.8-2.5 7.8-0.4 1.4-0.8 2.9-0.4 1.6-0.7 3.2-0.3 1.5-0.3 3.1 0 1.5 0.6 2.9 0 0.2 0.2 0.5 0.1 0.1 0.2 0.2 0.4 0.2 0.8 0.2 0.5 0.1 1 0.1 2.4-0.1 4.8-1.6 2.4-1.5 4.5-3.5 2.1-2 3.9-4.4 1.8-2.3 2.8-4.1 0.2-0.4 0.4-0.6 0.3-0.5 0.7-1 1.1-1.6 2.5-2.9 1.4-1.4 3-2.3 1.7-1 3.4-1.3 0.3-0.1 0.6-0.1 0.3 0 0.6 0 1.4 0 2.7 0.6 1.3 0.6 2.2 1.8 0 0 0 0.1 0 0 0.1 0.1 0.1-0.3 0.3-0.5 0.1-0.2 0.3-0.4 0.5-0.9 1.3-1.7 0.7-0.8 1.6-0.8 0.8 0 1.7 0.9 0.5 0.6 0.7 1.2 0.1 0.7 0 1.4-0.1 0.7-0.3 1.4-0.2 0.7-0.5 1.3-0.4 1.3-1 2.9-0.6 1.5-1.2 3.2-0.6 1.6-0.9 3.2-0.4 1.6-0.3 2.9 0 0.8 0.3 1.3 0.3 0.6 0.9 0.6 1.8 0 4-1.2 2.2-1.2 4.3-2.9 2.1-1.7 3.9-3.7 1.8-1.9 2.8-3.4 0.5-0.6 1-0.6 0.6 0 0.9 0.6 0.4 0.7-0.1 1.6zm-100 0.3q0.1 0.1 0.2 0.2 0.4 0.4 1.2 0.4 1.1 0 2.4-0.7 1.4-0.6 2.6-1.6 1.2-1 2-2.3 0.8-1.2 0.8-2.4-0.2 0-0.7 0-1.3 0-2.5 0.6-1.3 0.6-2.4 1.6-1.2 0.9-2.1 2-0.9 1.2-1.5 2.2zm77.7-4.9q0.1-0.5 0-0.9-0.1-0.5-0.3-0.6-0.2-0.2-0.6-0.2-1 0-2.2 0.6-1.1 0.5-2.2 1.3-1.1 0.8-2 1.8-0.9 0.9-1.5 1.6-1.3 1.5-2.3 3.5-1 1.9-1.1 3.9 0 1 0.3 1.8 0.2 0.8 1.3 0.8h0.3q0.5-0.1 1-0.4 0.5-0.2 0.9-0.5 1.4-0.9 2.5-2.1 1.2-1.2 2.2-2.6 1-1.4 1.9-2.8 0.8-1.5 1.7-3.1v-0.4q0-0.2 0.1-0.7 0-0.5 0-1z"/>
		</g>
		<path id="&lt;Path&gt;" class="s0" d="m327.2 307c4.8-4.7 14.7-12.8 27.7-14.5 13.1-1.8 21.1-8.3 26.8-10.8 5.7-2.6 13.4-11.5 15.5-15.7 2.2-4.2 13.9-18.5 29.3-18.7 15.5-0.2 26.2 11.9 26.2 11.9 0 0 1.4-8.4 3.1-16 1.7-7.6 11.9-20.7 18.4-39 6.4-18.4-0.6-29.5-0.6-29.5 0 0-12.8 21.7-26.4 28.3-13.7 6.6-29.5-1.1-38.9-2-9.5-0.8-16.7 9.6-19.9 20.5-3.2 10.9 0.6 23.9-2.9 35.1-3.6 11.1-7.2 18.3-27.2 15.4-20-3-11.7-33.2-11.7-33.2 0 0-14.7 8.4-20.8 15.6-6.1 7.2-6.9 28-8.9 35.1-2.1 7.1-6.7 18.7-15.4 19.2-8.7 0.5-12.3-9.2-12.3-9.2 0 0-2.1 0.4-6.4 4.3-4.3 3.9-13.6 25.6-13.6 25.6 0 0 6.7-22.2 10.3-27.5 3.6-5.4 8.1-13.6 12.5-11.9 4.5 1.7 2.6 6.9 2.6 7.4 0.1 0.4 1.4 4.5 7 5.4 5.5 0.9 5.5-5.4 7.4-11.8 1.8-6.3 2.6-21.5 11.2-39.8 8.6-18.3 28.8-24.5 33.2-26 4.4-1.4 11.4-2.4 11.4-2.4 0 0-0.7 4.5-5.5 9.8-4.8 5.2-6.4 11.9-6.3 20.9 0.1 8.9 6.3 12.8 15 11.9 8.6-1 12.7-11.7 12.4-21.3-0.3-9.5-2.8-20.9 0.3-30.6 3-9.7 10.7-20.1 26.2-23.2 15.4-3 26.9 4.3 38.5 2.4 11.6-2 18.3-14.2 20-21.2 1.7-7-0.2-11.2-0.8-13.3-0.6-2.1 0.7-4.4 3.3-4.7 2.6-0.3 5.7 3.5 11.3 10.2 5.6 6.6 9.2 14.4 4.5 34.9-4.7 20.5-14.5 33.7-19.9 42.1-5.3 8.5-3 18.4 0.8 19.8 3.8 1.4 5.4-1.1 9.6-6.2 4.3-5 5.5-16.5 5.5-16.5 0 0 11.7 14.1 11.6 21.2-0.1 7.1-4.4 9.9-4.4 9.9 0 0-2.6-2.8-2-7.1 0.7-4.2-3.3-7.8-3.3-7.8 0 0-4.4 5.5-7.1 10-2.6 4.6-9.6 5.2-9.6 5.2 0 0 3.5 1.9 10.5 9.2 7 7.3 21.3 27.9 22.9 34 1.7 6.1 6.1 31.3-12.1 44-18.2 12.7-43.4 4.2-43.4 4.2 0 0-5 2.6-21.3 3.5-16.3 0.9-30.1-6.3-30.1-6.3 0 0-10.4 1.9-20.5 4.8-10.1 2.9-36.2-3.8-36.2-3.8 0 0-21.6 3.8-30.3 2.9-8.7-0.8-37.5 1.1-47 2.6-9.5 1.5-39.2 11.4-39.2 11.4 0 0 7.5-5.7 21.7-11.3 14.2-5.6 25.3-6.8 32.6-8.5 7.3-1.7 31.7 1.7 38.9 1.8 7.2 0.1 17.4-1.4 25-2 7.7-0.5 24 2.8 24 2.8 0 0 13.7-3 22.4-5.2 8.6-2.2 23 2.1 23.2 1.2 0.2-0.8 31.6 0.8 41.1 2.3 9.4 1.5 25.2 1.2 36.8-7.4 11.6-8.5 8.9-26.2 6.5-29.4-2.4-3.2-6.5-2.3-9.4-0.3-2.8 2.1-5.9 7-8.2 6.8-2.4-0.2-2.9-2.9-3.6-9.7-0.8-6.8-6.3-14-10.7-20.7-4.3-6.7-11.2-9-10.5-10.2 0.7-1.2 7 1.6 14.1 8.5 7 7 11.2 19.4 13.5 21.3 2.3 1.8 2.6-1.4 3.6-3.3 1-1.9-4.1-7.8-4.1-7.8 0 0-4.3-6.7-1.3-5.3 3 1.4 9.9 13.9 9.9 13.9 0 0 3 1.2 5.4 2 2.4 0.8 2.7-0.5 2.7-2.7 0.1-2.3-7.4-14.3-14.9-25.2-7.5-10.8-34.3-28.3-40.6-31.7-6.3-3.4-12.9-3.1-16.9-2.8-3.9 0.3-0.2 3.2 4.3 6.2 4.4 2.9 2.6 5.7 2.6 5.7 0 0-7.6-3.9-12-5.5-4.5-1.6-6 1.8-6 1.8 0 0 11.9 2.6 14.8 4.6 2.9 2 5.5 7.1 2.4 6.9-3.1-0.2-3.5-2-3.5-2 0 0-7.6-1.7-13.5-3-5.9-1.3-5.2 1.8-5.5 3-0.3 1.3 5.4 1.4 12.4 3.4 6.9 2 16.4 6.6 24.6 13.9 8.2 7.2 18.6 19.4 23.4 30.1 4.7 10.7 4.2 17.8 2.1 23.1-2.1 5.3-7.2 5.8-10.7 5.6-3.6-0.2-8.4-1.7-11.6-1.3-3.3 0.3-3.4 3.6-4.6 4.4-1.3 0.8-7 2.1-10.1 2.1-3.2 0-4.2-3.8-4.2-3.8 0 0 3.8 0.7 7.6 0.5 3.8-0.2 5.9-3.5 5.9-3.5 0 0-4.2-0.9-8.1-1.7-3.9-0.7-8.7 2.8-20.5 2.3-11.8-0.5-11.4-2.5-11.4-2.5 0 0-8.8 4.7-14.9 6-6 1.4-10.4 1-19-0.6-8.5-1.5-10.6-0.8-14.9-0.7-4.2 0.1-1.5 3.4-5.5 4.7-4.1 1.2-7.1-0.7-7.1-0.7 0 0 7.1-2.7 8.4-4.6 1.3-2-3-2.8-5.1-2.2-2.1 0.6-6.6 1.1-9.5 1.4-2.9 0.2-3.7 1-5.2 4.5-1.6 3.6-1.3 3.7-3.5 3.3-2.2-0.3-1.5-2.6-0.8-4.4 0.7-1.8-0.2-3.3-0.2-3.3 0 0-3.9 2-8.3 2.1-4.4 0.1-11.8-2.5-14-2.8-2.1-0.4-1.1 1.5-0.9 4.4 0.1 2.9-4.2 3.2-6.3 4.4-2.1 1.2-9-2.3-9-2.3 0 0 8.6-0.1 10.8-1.5 2.1-1.5 1.6-4.2 1.6-4.2 0 0-4.4 2.3-12 2-7.6-0.3-5-0.4-12.4 0.7-7.3 1.1-3.2 4.3-5.4 5.6-2.3 1.3-7.6 0.4-7.6 0.4l8-6.3c0 0-1.8-0.7-7.2-0.4-5.3 0.3-11.5 2.9-11.5 2.9 0 0 1.5 1.5 3.2 2.8 1.7 1.3 0.7 1 0.1 2.4-0.6 1.4-2.5 0.1-5.2-0.7-2.7-0.7-5.9-0.2-12.4 2.6-6.5 2.7-17.6 15.5-17.6 15.5 0 0-0.1-3.2 2.7-6.6 2.7-3.5 9.5-9.8 24.2-18.2 14.6-8.4 31.2-6.2 37.4-5.1 6.2 1.1 6.1 1.6 10.5-0.4 4.4-2.1 7.7-2.8 16.2-2 8.6 0.8 16.3 0.7 16.3 0.7 0 0 12.1 0 20.7-2.9 8.6-2.9 20.2 2.8 34.3 4.8 14.2 2.1 10.9-3.3 17.6-6 6.8-2.7 9.5-0.3 16.9-1.1 7.4-0.8 11.9 3.1 17.9 2 6-1.1 18-0.2 27.2-0.2 9.1 0.1 4.7-2.3 5.1-8 0.3-5.8-5.3-17.6-17.2-31.3-11.9-13.6-34.2-22.1-43.2-23.7-9-1.5-12.9 5.5-20 10.8-7.1 5.4-22.9 10.8-33 13.1-10.2 2.2-20.3 13.4-24.5 14.7-4.2 1.4-11.1 3.9-18.8 5.1-7.6 1.2-21.9 14.9-24.8 16.1-2.8 1.1-7.4 3-9.1 1-1.6-2.1 3.3-3.4 10.2-7.3 6.9-3.9 4-5 13.3-10.2 9.2-5.1 20.1-5.3 20.1-5.3-1.1-0.3 8-2.5 12.8-7.1z"/>
		<g id="&lt;Group&gt;">
			<path id="&lt;Path&gt;" class="s0" d="m413.9 317.3c-2.1 4.3-11.8 11.1-26.6 8.1-14.9-3-24.7-17.8-4.3-21.6 20.4-3.8 28.6 5.7 28.6 5.7 0 0 4.5 3.4 2.3 7.8z"/>
		</g>
		<g id="&lt;Group&gt;">
			<path id="&lt;Path&gt;" class="s0" d="m451.3 327.6c-2.8 3.1-13.1 7.5-23.9 3.6-10.7-3.8-7.4-12.8 2.4-14.9 9.9-2.2 18.4 2.8 18.4 2.8 0 0 5.9 5.4 3.1 8.5z"/>
		</g>
		<g id="&lt;Group&gt;">
			<path id="&lt;Path&gt;" class="s0" d="m377.3 328.3c1 1.4-3.1 8.5-11.5 8.6-8.3 0.1-18.4-5.6-10.3-10.9 8.1-5.3 17.5 0 17.5 0 0 0 3.3 0.9 4.3 2.3z"/>
		</g>
		<g id="&lt;Group&gt;">
			<path id="&lt;Path&gt;" class="s0" d="m411.8 293.3c0 0-4.2 6.7-15.3 4.1-11.1-2.6-7.6-10.8-1.8-12.3 5.7-1.4 16.1-0.2 18.6 1.7 2.4 1.9-1.5 6.5-1.5 6.5z"/>
		</g>
		<g id="&lt;Group&gt;">
			<path id="&lt;Path&gt;" class="s0" d="m436.2 303.8c-0.2 2.1-2 3.6-10.3 3.3-8.3-0.3-10.4-5.8-4.4-8.5 6.1-2.7 12.3 1.2 12.3 1.2 0 0 2.6 1.9 2.4 4z"/>
		</g>
		<g id="&lt;Group&gt;">
			<path id="&lt;Path&gt;" class="s0" d="m361.1 315.5c-0.7 1.3-6.7 5.9-16.9 2.3-10.2-3.6-4-8.5 2.3-10.3 6.3-1.8 13.2 3.6 13.2 3.6 0 0 2.2 3.1 1.4 4.4z"/>
		</g>
		<g id="&lt;Group&gt;">
			<path id="&lt;Path&gt;" class="s0" d="m337 329.2c0.3 1.4-2.5 7.3-13.5 8.5-10.9 1.2-17.1-3.1-17.1-6.8-0.1-3.8 3.3-7.5 13.9-8.4 10.6-1 13.6 3 13.6 3 0 0 2.8 2.3 3.1 3.7z"/>
		</g>
	</g>
</svg>