<svg version="1.2" xmlns="http://www.w3.org/2000/svg" viewBox="0 0 1190 502" width="178.5" height="75.3">
	<title>Angolo della Pizza Monocolore-1-ai</title>
	<style>
		.s0 { fill: #ffffff } 
		.s1 { fill: #1d1d1b } 
	</style>
	<g id="Livello 1">
		<g id="&lt;Group&gt;">
			<path id="&lt;Compound Path&gt;" fill-rule="evenodd" class="s0" d="m687 252.1q-1.1 3.3-2.3 6.7-0.9 3.3-1.8 6.9-0.9 3.6-1.7 7.3-0.8 3.7-1.3 7.3-0.6 3.7-0.8 7.1-0.1 2.2 0 4.5 0.1 2.4 1.1 4.4 0.3 0.7 0 1.4-0.3 0.6-1 0.6-0.8 0-1.4-0.7-0.6-0.7-1-1.8-0.4-1.2-0.7-2.6-0.3-1.4-0.5-2.8-0.1-1.5-0.2-2.9 0-1.3 0.1-2.4 0.1-2.4 0.4-4.7-0.8 1.5-1.9 3.3-1.1 1.9-2.5 3.6-1.4 1.6-3 2.7-1.6 1.2-3.5 1.2-0.5 0-1-0.1-0.6-0.1-1.1-0.4-1.8-0.7-2.8-2-0.9-1.3-1.2-3-0.2-1.7 0-3.5 0.3-1.9 0.9-3.6 0.5-1.8 1.3-3.4 0.8-1.6 1.6-2.7 0.7-1 1.5-2 0.9-1 1.9-1.8 1-0.8 2.1-1.3 1.2-0.5 2.5-0.6 1.9 0 3.2 0.6 1.3 0.7 2.3 2.3 1.3-3.2 2.6-6.7 1.3-3.5 2.5-7 0.9-3.3 1.9-6.5 1-3.2 2-6.4 0.3-0.9 1.4-0.9 0.4 0 0.9 0.2 0.5 0.3 0.8 0.7 0.4 0.4 0.5 0.9 0.2 0.6 0.1 1.3-0.8 3.4-1.9 6.8zm-13 22.7q-0.1-0.5-0.1-0.7 0-1.5-0.2-2.5-0.2-0.9-1.3-0.9-1.4 0-2.7 0.9-1.2 0.9-2.2 1.8-1.8 1.9-2.9 4.4-1.2 2.5-1.7 5-0.1 0.5-0.2 1.2-0.2 0.8-0.2 1.5 0 0.7 0.3 1.2 0.2 0.5 0.8 0.6 1.1 0 2.1-0.7 1.1-0.7 2.2-1.8 1-1.2 1.9-2.6 1-1.4 1.8-2.8 0.8-1.4 1.4-2.6 0.6-1.2 1-2z"/>
			<path id="&lt;Compound Path&gt;" fill-rule="evenodd" class="s0" d="m790.2 277.5q-0.5 1.1-1.5 2.5-1 1.4-2.2 2.9-1.3 1.4-2.7 2.9-1.5 1.4-3 2.5-1.6 1.2-3.2 1.8-1.6 0.7-3.1 0.7-2.2 0-3.9-1.5-1.6-1.4-2-3.4-0.3-2 0-4.2-0.8 1.2-1.9 2.7-1.1 1.5-2.4 2.8-1.3 1.3-2.8 2.2-1.5 0.9-3.1 0.9-0.2 0-0.4 0-0.3 0-0.6-0.1-2.2-0.5-3.4-1.9-1.2-1.5-1.5-3.4-0.2-0.8-0.2-1.7-0.3 0.4-0.6 0.8-1.3 1.7-2.9 3.4-1.5 1.7-3.2 3-1.7 1.4-3.5 2.2-1.7 0.9-3.3 0.9-1.6 0-3-0.9-1.4-0.9-2.6-2.9-0.9-1.5-1.1-3.2-0.3-1.7-0.2-3.5 0.1-0.6 0.1-1.2-0.7 1.1-1.5 2.2-1.3 1.7-2.9 3.4-1.6 1.7-3.3 3-1.7 1.4-3.4 2.2-1.7 0.9-3.4 0.9-1.5 0-2.9-0.9-1.4-0.9-2.6-2.9-0.9-1.5-1.2-3.2-0.2-1.7-0.1-3.5 0-0.1 0-0.2-0.3 0.4-0.6 0.9-1.8 2.5-4.3 4.3-2.4 1.8-5.3 2.9-2.9 1-5.9 1-2.4 0-4.6-1.1-2.2-1-3.5-3.1-1.4-2.2-1.4-4.8-0.1-2.6 0.6-5.1 0.6-1.8 1.7-3.7 1.1-1.8 2.7-3.2 1.5-1.5 3.4-2.3 1.9-0.9 4-0.9 1.4 0 2.6 0.5 1.2 0.6 2 1.6 0.8 1 1 2.3 0.3 1.3-0.2 2.8-0.5 1.4-1.5 2.7-1 1.2-2.4 2.3-1.4 1-3 1.6-1.6 0.6-3.1 0.6-2.2 0-3.8-1.2-0.2 0.9-0.3 1.8-0.1 0.9 0 1.8 0.1 1 0.5 1.7 0.4 0.7 1.1 1.1 0.7 0.4 1.5 0.6 0.9 0.2 1.7 0.2 2.9 0 5.7-1 2.8-0.9 5.2-2.5 2.4-1.7 4.3-3.9 1.9-2.2 3.1-4.7 0.1-0.2 0.1-0.3 1-3.7 2.2-7.2 1.4-3.8 2.9-7.5 1.5-3.7 3.1-7.4 1.5-3.7 2.9-7.5 0.2-0.7 0.9-0.7 0.5 0 1 0.3 0.5 0.3 0.9 0.8 0.5 0.5 0.6 1.1 0.2 0.6 0 1.1-1 3.1-2.4 6.1-1.4 3-2.6 6-1.5 3.9-2.9 7.7-1.5 3.9-2.5 7.9-0.4 1.3-0.8 2.8-0.5 1.6-0.7 3.2-0.3 1.6-0.3 3.1 0 1.6 0.5 2.9 0.1 0.3 0.3 0.5 0.1 0.1 0.2 0.2 0.4 0.2 0.8 0.2 0.5 0.1 1 0.1 2.3-0.1 4.7-1.6 2.4-1.4 4.6-3.5 2.1-2 3.9-4.4 1.7-2.3 2.8-4.1 0.1-0.2 0.2-0.3 0.9-3.6 2.2-7 1.3-3.8 2.8-7.5 1.5-3.7 3.1-7.4 1.5-3.7 2.9-7.5 0.2-0.7 0.9-0.7 0.5 0 1 0.3 0.5 0.3 1 0.8 0.4 0.5 0.6 1.1 0.2 0.6 0 1.1-1.1 3.1-2.5 6.1-1.3 3-2.5 6-1.5 3.9-3 7.7-1.4 3.9-2.5 7.9-0.4 1.3-0.8 2.8-0.4 1.6-0.7 3.2-0.2 1.6-0.2 3.1 0 1.6 0.5 2.9 0.1 0.3 0.3 0.5 0.1 0.1 0.1 0.2 0.4 0.2 0.9 0.2 0.4 0.1 0.9 0.1 2.4-0.1 4.8-1.6 2.4-1.4 4.5-3.5 2.2-2 3.9-4.4 1.8-2.3 2.9-4.1 0.1-0.4 0.3-0.5 0.4-0.6 0.7-1.1 1.2-1.6 2.6-2.9 1.3-1.3 3-2.3 1.6-1 3.3-1.3 0.3-0.1 0.6-0.1 0.3 0 0.6 0 1.4 0 2.7 0.6 1.3 0.6 2.2 1.8 0 0.1 0.1 0.1 0 0.1 0 0.1 0.2-0.2 0.3-0.4 0.1-0.3 0.3-0.5 0.6-0.9 1.3-1.7 0.7-0.8 1.6-0.8 0.8 0 1.7 0.9 0.6 0.6 0.7 1.3 0.1 0.6 0 1.3 0 0.7-0.3 1.4-0.2 0.7-0.5 1.4-0.4 1.2-1 2.8-0.6 1.5-1.2 3.2-0.5 1.6-0.9 3.2-0.3 1.6-0.3 2.9 0.1 0.8 0.3 1.4 0.3 0.5 0.9 0.5 1.9 0 4.1-1.2 2.1-1.2 4.2-2.9 2.1-1.7 3.9-3.7 1.8-1.9 2.9-3.4 0.4-0.6 0.9-0.6 0.6 0 1 0.7 0.3 0.6-0.2 1.5zm-100 0.4q0.1 0 0.2 0.1 0.4 0.4 1.2 0.4 1.1 0 2.4-0.7 1.4-0.6 2.6-1.6 1.2-1 2-2.2 0.8-1.3 0.8-2.4-0.2-0.1-0.7-0.1-1.2 0-2.5 0.6-1.3 0.6-2.4 1.6-1.1 0.9-2.1 2-0.9 1.2-1.5 2.3zm77.8-5q0-0.5-0.1-0.9-0.1-0.4-0.3-0.6-0.2-0.2-0.6-0.2-1 0-2.1 0.6-1.2 0.6-2.3 1.4-1 0.8-2 1.7-0.9 0.9-1.5 1.6-1.3 1.5-2.2 3.5-1 1.9-1.1 4-0.1 0.9 0.2 1.7 0.2 0.8 1.3 0.8h0.3q0.5-0.1 1-0.3 0.5-0.3 0.9-0.6 1.4-0.9 2.5-2.1 1.2-1.2 2.2-2.6 1-1.4 1.9-2.8 0.9-1.5 1.7-3.1v-0.3q0-0.3 0.1-0.8 0-0.5 0.1-1z"/>
			<g id="Scritta">
				<path id="&lt;Path&gt;" class="s0" d="m835.1 274.4c1.2 1.2-7.3 35.4-7.6 37.8-0.3 2.4 1.2 2.8 5 2.2 3.7-0.6 10-5.8 14.6-18 4.6-12.1 1.6-23.1-3.9-27.2-5.4-4-19.6-1.6-27.2 2.4-7.6 4-12.4 11.5-14.5 17.1-2 5.5 1 17.9-0.5 18.8-1.5 0.9-7.7-0.4-10.3-4.2-2.5-3.8-3.7-15 6.7-25.4 10.3-10.4 24.9-14.7 32.2-15.9 7.4-1.3 32.8-3.6 33 23.8 0.2 27.3-36.4 34.3-36.4 34.3 0 0-7.1 37.1-7.4 37.8-0.2 0.7-1 0.9-3.4 0.8-2.4-0.1-3.5 1.1-7.7 3-4.1 1.9-6.2 1.7-7.1 0-0.8-1.7 0.7-5.8 0.7-5.8 0 0 15.2-76.5 16-78.4 0.7-1.8 1.8-1 4.6-0.7 2.9 0.4 8.5-2.1 8.5-2.1 0 0 3.6-1.4 4.7-0.3z"/>
				<path id="&lt;Path&gt;" class="s0" d="m886.9 280.9c0.9 1-7.9 44.3-8.1 47.1-0.2 2.8 2.1 2 3.2 1.8 1-0.2 3.5-1.1 5.4 0.1 1.8 1.1-2.7 12-16.1 13.1-13.5 1.2-10.5-13.4-10.5-13.4 0 0 7.3-44.2 9.2-46.3 2-2.1 4.3-0.9 7.3-0.9 3 0 6.7-2.1 6.7-2.1 0 0 2-0.4 2.9 0.6z"/>
				<path id="&lt;Path&gt;" class="s0" d="m941.7 271.3c-0.5 2.3-23.5 43.3-24.9 47.2-1.4 3.9 2.3 3.7 2.3 3.7 0 0 9.6-2.3 10.7-3 1.1-0.7 0.6-2 0.6-2 0 0-2.6-0.4-2.6-2.2 0-1.8 2-5.3 7.3-6.6 5.3-1.3 5.5 2 5.5 2 2.3 9.3-10 16.3-10 16.3l-28.5 8.3c0 0-4.8 1.9-6.5 1.1-1.7-0.7-1.1-3.7-1.1-3.7 0 0 25.1-47.8 26-49.5 0.9-1.7-0.5-3.3-2.7-3.4-2.2-0.1-9 2.5-9.7 3.2-0.8 0.7 0 1.8 1.5 2.2 1.5 0.3 1.3 3.2-1.1 5.5-2.4 2.3-11.1 5.9-11.7-0.8-0.6-6.6 6.4-12.2 9.9-13 3.6-0.7 33.1-7.9 33.1-7.9 0 0 2.3 0.3 1.9 2.6z"/>
				<path id="&lt;Path&gt;" class="s0" d="m992.5 259.8c1.5 0.7 0.7 2 0 3.3-0.7 1.3-24.5 41.7-23.3 44.9 1.1 3.2 12.1-1.4 13-3.2 1-1.7-1.6-1.5-2.7-2.3-1.2-0.7 1.6-5.5 7-6.5 5.4-1 6.3 2.6 5.2 7.7-1.1 5.1-11.3 10.3-11.3 10.3 0 0-30.4 8.4-33 7.4-2.6-1.1 0-4.2 0-4.2 0 0 23.2-44 24.4-45.4 1.1-1.4-1-2.9-2.4-3.1-1.4-0.2-7.9 1.5-9.1 2.1-1.1 0.6-1 2.6 0.3 2.5 1.2-0.1 2 2.8-1.4 6.4-3.5 3.5-12.1 3.2-9.9-4.7 2.1-8 10.3-10.1 10.3-10.1l30.3-5.8c0 0 1.1 0 2.6 0.7z"/>
				<path id="&lt;Path&gt;" class="s0" d="m1037.6 255.2c0.7-1.4 10.4-0.7 13.3-0.7 2.9 0 4.2 1 4.4 2.7 0.1 1.7-5.5 32.4-6.2 35.2-0.7 2.7 0.9 3.5 3.2 3.6 2.3 0.1 3.8-0.4 3.6 2.8-0.3 3.3-4.2 6.9-11.7 7.1-7.5 0.2-11.4-7.5-12.5-7.9-1-0.5-1.3 1.3-3.7 3.8-2.4 2.4-10.5 7.2-20.9 6.9-10.5-0.2-18.3-20.2-2.8-41.6 15.6-21.4 32.2-8 32.2-8 0 0 0.4-2.6 1.1-3.9z"/>
				<path id="&lt;Path&gt;" class="s1" d="m1034.3 260.9c1.4-0.1 2.4 2.6 2.4 2.6 0 0-4.9 25.9-5 26.1-0.2 0.3-3.7 6.7-8.3 8.1-4.6 1.4-13.7 0-7.8-19.4 5.8-19.3 17.3-17.4 17.3-17.4 0 0 0 0 1.4 0z"/>
				<path id="&lt;Path&gt;" class="s0" d="m1034.7 312.2c0.6 0 0.9 3.9-1 5.3-2 1.4-41.7 13.4-57.5 18.8-15.7 5.4-94.2 36.7-103.1 39.4-8.8 2.6-15.5 9.3-20.5 9-4.9-0.4-4.9-11.3 1.8-16.8 6.7-5.5 19.8-8.9 65.6-24.8 45.8-15.9 112.4-31.4 112.4-31.4 0 0 1.8 0.5 2.3 0.5z"/>
				<path id="&lt;Compound Path&gt;" class="s0" d="m848.5 180.9c4.6-4.1 9.4-7.9 15.4-9.7 5.5-1.7 10.3 0.9 11.7 6.5 0.3 1.3 0.1 2.9-0.4 4.2q-4.4 10.8-9.1 21.6c-2.6 5.8-4.9 11.8-5.5 18.2-0.3 3.8 1 4.8 4.4 3 7.7-4.1 13.6-10.2 18.2-17.5 2.1-3.2 3.5-6.8 5.4-10.1 5.4-9.6 12.2-17.8 21.9-23.3 5.8-3.2 11.9-4.8 18.6-3.4 3.9 0.8 6.7 3 7.7 6.7 0.9 3.2 1 6.6 1.2 10 0 0.7-1.1 1.5-1.7 2.2-0.6-0.6-1.6-1.2-1.8-1.9-0.5-1.7-0.5-3.6-0.9-5.3-0.8-4.2-3.4-6.3-7.7-6.2-6.1 0.1-10.7 3.3-14.6 7.5-7.8 8.4-13.2 18.2-15.2 29.7-0.2 0.9-0.3 1.7-0.3 2.5 0.1 3.1 0.3 6.2 3.4 7.8 3.2 1.5 6.5 0.7 9.1-1.4 8.3-6.6 15.2-14.3 18.7-24.6 0.8-2.6 1.6-5.2 2.4-7.8 4.3-0.6 11.2 4.2 11.8 8.5 0.1 1.3-0.4 2.9-1.1 4.1-8.4 14.8-16.8 29.6-25.2 44.3-0.5 0.8-0.9 1.7-1.6 3 8.5 4.2 16.8 8.3 25.2 12.5-1.1 5-9.4 8.9-14.2 6-5.1-2.9-10-6.1-15-9.2-0.4-0.3-0.9-0.5-1.5-0.9-2 2.5-3.9 4.9-5.8 7.3-9 11-20.4 17-34.9 16.3-4.5-0.2-8.9-1.1-12.7-4-5.8-4.5-7.2-13.8-2.9-20.8 5.4-9.1 14-13.4 24.1-14.9 8.5-1.3 17-0.4 25.2 2.3 1.1 0.4 2.2 0.7 3.8 1.2 3-6.8 6-13.5 9.2-20.9-0.9 0.7-1.4 0.9-1.8 1.2-2.5 1.8-4.9 4-7.6 5.5-9.7 5.3-20.3-0.4-21.5-11.4-0.1-1.3-0.2-2.7-0.4-4.6-0.9 1-1.5 1.7-2 2.4-3.9 4.9-7.9 9.6-13.2 13-1.7 1.1-3.7 2.2-5.7 2.5-6.9 1.4-12.2-2.6-12.9-9.6-0.6-5.4 0.8-10.5 2.6-15.5 2.2-6 4.7-11.8 7-17.8q1.4-3.5 2.3-7.2c0.2-0.8 0-2.3-0.5-2.5-0.8-0.4-2.1-0.2-2.8 0.2-1.7 1-3.5 2-4.8 3.4-5.7 5.7-11.7 11.2-16.7 17.5-2.7 3.5-4 8.4-5.2 12.9-1.5 5.5-2.3 11.3-3.3 17-0.3 1.5-1.1 2-2.2 1.4-2.2-1.2-4.3-2.5-6.1-4.1-0.7-0.5-0.8-2-0.8-3 0.5-9.6 3.6-18.5 6.7-27.4 3.1-8.8 6.4-17.4 9.4-26.2 0.6-1.6 1.4-2.3 3-1.8 3.8 1.2 6.8 3.5 8.1 7.2 0.7 2-0.2 4.4-0.3 6.7 1-1 2.2-2.2 3.4-3.3zm-63.6 3.6c-1 0-2 1.1-2.8 1.9-10.5 9.5-20.7 19.2-31.3 28.6-10.5 9.4-21.8 17.9-34.6 24-11.9 5.7-24.3 8.5-37.4 5.1-17.3-4.5-25.4-19.3-23.5-35.4 1.8-16.2 10.1-28.2 25.1-34.8 10-4.4 20.4-6.2 30.8-1.1 4.1 2 7.2 5.2 9.4 9.1 1.8 3.4 1.1 6.9 0.1 11.1-1.3-1.7-2.2-2.9-3.2-4.1-3.1-4-6.7-7.4-11.4-9.5-7.7-3.4-15.4-2.4-22.9 0.2-13.3 4.6-22.5 16.9-23.2 30.7-0.7 14.4 8.7 25.5 23.3 27.4 11.3 1.6 21.6-1.3 31.4-6.6 14.3-7.8 26.7-18.1 38.7-29 5.3-4.8 10.5-9.7 15.7-14.5 0.4-0.4 0.7-0.7 1-1.1q-0.2-0.3-0.3-0.7c-3.8 0.8-7.7 1.5-11.4 2.6-5.5 1.6-10.8 3.5-16.2 5.4-2.8 1-7.8-1.8-7.9-4.7-0.1-0.5 1.1-1.5 1.9-1.7 9.1-1.8 18.1-3.6 27.3-5.3 3.7-0.7 7.6-0.9 11.3-1.6 1.5-0.3 3.1-1.1 4.2-2.2 14.6-14.2 29.2-28.4 43.6-42.9 7-7 13.5-14.4 20.1-21.7 1.2-1.4 2.3-1.4 3.3-0.1 1.6 2 3.2 4 4.5 6.2 1.3 2.1 0.5 4.3-0.6 6.3-4 7.9-7.9 15.8-12.2 23.5-10.6 18.7-21.6 37.2-31.9 56.1-4.2 7.5-7.2 15.7-10.3 23.8-1.6 4-1.8 8.2 2.2 11.4 0.4 0.3 0.7 1.6 0.4 1.9-0.4 0.6-1.3 1-2 1-7.5-0.5-11.3-4.4-11.4-12-0.1-6.5 1.4-12.7 4.1-18.5 4.2-8.9 8.8-17.5 13.2-26.2 0.4-0.7 0.8-1.5 1.5-2.7-6.6 0-12.6-0.1-18.6 0.1zm248.7 35c-4.4 5.5-9.1 10.4-15.8 13-7.6 2.9-13.4-0.9-13.7-9-0.3-6.8 1.2-13.5 3.7-19.7 4.2-10.3 8.8-20.4 13.7-30.4 6.3-13 12.9-25.9 17.2-39.7 0.5-1.7 1.4-1.9 2.8-1.6 6.4 1 10 7.5 7.2 13.3-5.4 11-10.9 21.9-16.3 32.9-6.1 12.2-12.4 24.2-16.1 37.4-0.6 2.1-1 4.3-1.1 6.5-0.1 2.6 1.3 3.8 3.7 2.9 2.6-1 5.4-2.3 7.5-4.1 7-6.3 12.3-13.7 15.7-22.6 5.1-12.9 13.5-22.8 27-27.5 4.8-1.6 9.8-1.8 14.6 0.3 3.5 1.6 5.2 4.5 6 8.1 0.4 1.4 0.9 2.9 1.5 4.2 2.2 4.6 2.5 9.4 1.6 14.3-2.7 13.7-9.2 25-21.5 32.2-13.4 7.8-28.4 0.4-31-14.8-0.2-1.1-0.3-2.2-0.6-3.9-2.3 3.1-4.1 5.7-6.1 8.2zm-55.4 10.8c-11.9 6.8-25.3 1.1-29.6-11.9-2.6-7.8-1.3-15.1 1.9-22.3 4.9-11 12.4-19.5 23.8-24.4 4.1-1.8 8.5-2.2 12.9-1.7 5.2 0.6 8.8 4 9.9 9.2 0.3 1.5 1.1 2.9 1.6 4.5 0.9 3.1 1.6 6.3 2.3 8.8-2 16.6-8.6 29.7-22.8 37.8zm-234.5-96.9c4.1-8.7 8.8-17.3 12.8-26.1 3.5-7.7 6.5-15.6 9.6-23.6 0.6-1.7 1.5-2 3-1.5 5.9 1.7 8.2 6.5 5.5 12-7 14.4-14.4 28.7-21.2 43.2-3 6.6-5.1 13.7-7.3 20.6-0.4 1.3-0.1 3.7 0.7 4.1 1.1 0.6 3.1 0.3 4.5-0.3 4.7-2.2 8-6 10.9-10.1 2.9-4.1 5.5-8.4 8.2-12.6 0.6-1 1.2-2.4 2.7-1.4 1.5 1 0.5 2.1-0.1 3.1-4.8 7.5-9 15.4-15.5 21.7-3 3.1-6.4 5.6-10.6 6.9-5.4 1.6-9.5-1-10.4-6.6-0.1-1.1-0.2-2.2-0.3-3 0.6-9.5 3.6-18.1 7.5-26.4zm37.3-27.5q-0.6-0.6-1.2-1.3c-1.9-2.2-1.9-5.1 0.1-6.8 2.1-1.8 5.8-1.3 7.5 0.9q0.4 0.6 0.8 1.3c2.4 5.1-0.5 13.4-5.9 16.1 2.3-4.3 1.9-7-1.3-10.2z"/>
				<path id="&lt;Path&gt;" class="s0" d="m736.2 159.8c0.6-9.5 3.6-18.1 7.5-26.4 4.1-8.7 8.8-17.3 12.8-26.1 3.5-7.7 6.5-15.6 9.6-23.6 0.6-1.7 1.5-2 3-1.5 5.9 1.7 8.2 6.5 5.5 12-7 14.4-14.4 28.7-21.2 43.2-3 6.6-5.1 13.7-7.3 20.6-0.4 1.3-0.1 3.7 0.7 4.1 1.1 0.6 3.1 0.3 4.5-0.3 4.7-2.2 8-6 10.9-10.1 2.9-4.1 5.5-8.4 8.2-12.6 0.6-1 1.2-2.4 2.7-1.4 1.5 1 0.5 2.1-0.1 3.1-4.8 7.5-9 15.4-15.5 21.7-3 3.1-6.4 5.6-10.6 6.9-5.4 1.6-9.5-1-10.4-6.6-0.1-1.1-0.2-2.2-0.3-3z"/>
				<path id="&lt;Path&gt;" class="s0" d="m782.3 116.1c2.3-4.3 1.9-7-1.3-10.2q-0.6-0.6-1.2-1.3c-1.9-2.2-1.9-5.1 0.1-6.8 2.1-1.8 5.8-1.3 7.5 0.9q0.4 0.6 0.8 1.3c2.4 5.1-0.5 13.4-5.9 16.1z"/>
				<path id="&lt;Path&gt;" class="s1" d="m900.1 254c-7.2 11.9-15.2 22.6-30.6 23.7-3 0.2-6.3-0.3-9.1-1.4-7.9-3-9.7-11.9-4-18.1 3.7-4 8.4-6 13.5-7.3 10-2.7 19.7-1.8 29.2 2.3 0.3 0.1 0.5 0.4 1 0.8z"/>
				<path id="&lt;Path&gt;" class="s1" d="m831.9 139.6c-5.5 8.6-11.2 17.2-16.7 25.9-2.7 4.1-5.1 8.4-7.9 12.5-0.5 0.8-1.8 1.6-2.7 1.6-4.8 0.1-9.5 0.1-14.3 0.1q-0.2-0.4-0.3-0.7 20.7-20 41.3-39.9 0.3 0.2 0.6 0.5z"/>
				<path id="&lt;Path&gt;" class="s1" d="m1076.3 194c2.7-2.5 4.9-5 7.6-6.9 3.1-2.1 5.1-0.7 5 3-0.2 7.1-2.8 13.5-6.4 19.6-3.3 5.5-7.4 10.4-13.1 13.7-7.8 4.5-15.7 0.8-17.1-8.1-0.9-6 0.7-11.7 3-17.1 3.3-7.7 7.5-14.7 14.9-19.3 3.3-2 6.8-3.5 10.8-3.1 2.1 0.1 3.7 1.1 4.2 3.5-3.6 1.3-7.4 2.9-8.7 6.6-0.9 2.5-0.2 5.6-0.2 8.1z"/>
				<path id="&lt;Path&gt;" class="s1" d="m992.6 179.2c-9.3 4.1-10.4 7-8.4 15.5 0.3-0.6 0.5-1 0.8-1.3 2.2-2.2 4.1-4.6 6.5-6.3 2.9-2 5.3-0.6 4.8 2.8-0.7 4.7-1.8 9.5-3.5 14-2.6 6.8-6.9 12.7-12.6 17.3-3.4 2.7-7 4.5-11.5 3.9-4.5-0.6-7.7-3.6-8.6-8.2-1.7-8.6 1.1-16.3 5-23.6 3.4-6.5 7.7-12.4 14.6-15.5 2.8-1.2 6-1.6 9.1-1.9 2.2-0.2 3 0.9 3.8 3.3z"/>
			</g>
		</g>
		<g id="Pizza">
			<path id="&lt;Path&gt;" class="s0" d="m318.4 300.6c7.7-7.5 23.6-20.4 44.5-23.2 20.8-2.9 33.7-13.3 42.8-17.3 9.1-4 21.5-18.4 24.9-25.1 3.4-6.8 22.2-29.6 46.8-29.9 24.7-0.4 41.9 19.1 41.9 19.1 0 0 2.2-13.5 4.9-25.7 2.7-12.2 19.1-33.1 29.5-62.4 10.3-29.3-0.9-47.2-0.9-47.2 0 0-20.5 34.7-42.4 45.3-21.8 10.6-47.1-1.7-62.2-3.1-15.1-1.4-26.7 15.3-31.8 32.7-5.1 17.5 0.9 38.3-4.7 56.1-5.6 17.8-11.5 29.3-43.5 24.7-32-4.7-18.7-53.1-18.7-53.1 0 0-23.4 13.4-33.2 25-9.8 11.5-11.1 44.7-14.4 56.1-3.2 11.3-10.7 29.9-24.6 30.7-13.9 0.8-19.6-14.7-19.6-14.7 0 0-3.3 0.7-10.2 6.9-6.9 6.2-21.9 41-21.9 41 0 0 10.8-35.5 16.5-44.1 5.8-8.6 13-21.7 20.1-18.9 7.1 2.7 4.1 11 4.2 11.7 0 0.8 2.2 7.3 11.1 8.7 8.8 1.5 8.9-8.6 11.8-18.8 3-10.2 4.3-34.5 18-63.8 13.7-29.2 46-39.2 53.1-41.5 7-2.3 18.2-3.9 18.2-3.9 0 0-1.1 7.2-8.8 15.6-7.6 8.4-10.3 19.2-10 33.5 0.2 14.2 10.1 20.5 24 19 13.8-1.5 20.2-18.6 19.8-33.9-0.5-15.3-4.4-33.6 0.4-49.1 4.9-15.6 17.3-32.1 42-37 24.7-4.9 43.1 6.8 61.6 3.7 18.5-3.1 29.4-22.7 32.1-33.9 2.7-11.2-0.4-17.9-1.4-21.3-0.9-3.3 1.1-7 5.3-7.5 4.2-0.5 9.1 5.7 18.1 16.3 9 10.7 14.7 23 7.2 55.9-7.5 32.8-23.2 53.9-31.8 67.4-8.5 13.6-4.8 29.3 1.2 31.6 6 2.3 8.6-1.7 15.5-9.8 6.8-8.1 8.7-26.5 8.7-26.5 0 0 18.6 22.6 18.5 34 0 11.3-7.1 15.7-7.1 15.7 0 0-4-4.5-3-11.2 1-6.8-5.4-12.6-5.4-12.6 0 0-7 8.9-11.3 16.1-4.3 7.3-15.3 8.2-15.3 8.2 0 0 5.6 3.2 16.7 14.8 11.2 11.6 34 44.6 36.7 54.4 2.7 9.7 9.7 50.1-19.4 70.4-29.1 20.4-69.5 6.6-69.5 6.6 0 0-7.9 4.3-34 5.7-26.1 1.5-48.2-10.1-48.2-10.1 0 0-16.6 3.1-32.8 7.7-16.2 4.6-57.9-6.1-57.9-6.1 0 0-34.6 6.1-48.6 4.7-13.9-1.4-59.9 1.7-75.1 4.1-15.3 2.5-62.6 18.3-62.6 18.3 0 0 11.9-9.2 34.6-18.2 22.7-8.9 40.5-10.8 52.2-13.5 11.7-2.7 50.7 2.8 62.2 2.9 11.6 0.1 27.8-2.3 40-3.2 12.3-0.9 38.4 4.4 38.4 4.4 0 0 22-4.8 35.8-8.3 13.8-3.4 36.9 3.4 37.2 2 0.3-1.4 50.6 1.3 65.7 3.7 15.1 2.3 40.3 1.9 58.9-11.9 18.6-13.7 14.2-41.9 10.4-47.1-3.8-5.2-10.4-3.7-15-0.4-4.6 3.3-9.4 11.2-13.2 10.8-3.8-0.3-4.5-4.6-5.7-15.5-1.3-10.8-10-22.4-17.1-33.1-7-10.8-18-14.4-16.9-16.3 1.2-1.9 11.3 2.5 22.6 13.6 11.3 11.2 18 31 21.6 34 3.7 3 4.2-2.2 5.8-5.2 1.6-3-6.6-12.6-6.6-12.6 0 0-6.8-10.7-2-8.4 4.8 2.3 15.8 22.3 15.8 22.3 0 0 4.9 1.8 8.7 3.1 3.8 1.4 4.2-0.7 4.3-4.3 0.1-3.6-11.8-22.9-23.9-40.2-12.1-17.4-54.8-45.4-64.9-50.8-10.2-5.4-20.6-5-27-4.5-6.4 0.5-0.4 5.2 6.7 9.9 7.2 4.7 4.3 9.1 4.3 9.1 0 0-12.1-6.3-19.3-8.8-7.2-2.5-9.6 3-9.6 3 0 0 19.1 4.2 23.7 7.4 4.6 3.1 8.8 11.3 3.8 10.9-4.9-0.3-5.5-3.1-5.5-3.1 0 0-12.2-2.7-21.6-4.8-9.5-2.1-8.3 2.7-8.8 4.8-0.5 2.1 8.7 2.2 19.8 5.3 11.1 3.2 26.3 10.7 39.4 22.3 13.1 11.5 29.8 31.1 37.3 48.2 7.6 17.1 6.8 28.5 3.5 36.9-3.4 8.5-11.5 9.3-17.2 9-5.7-0.3-13.4-2.7-18.6-2.1-5.2 0.5-5.4 5.8-7.3 7-2 1.3-11.1 3.3-16.2 3.4-5.1 0-6.6-6-6.6-6 0 0 6 1.1 12.1 0.7 6.1-0.3 9.4-5.6 9.4-5.6 0 0-6.6-1.5-12.9-2.6-6.2-1.2-14 4.4-32.8 3.6-18.9-0.8-18.2-4-18.2-4 0 0-14.2 7.4-23.8 9.6-9.7 2.2-16.8 1.6-30.4-0.9-13.7-2.5-17.1-1.4-23.9-1.2-6.8 0.2-2.4 5.5-8.9 7.5-6.4 1.9-11.3-1.1-11.3-1.1 0 0 11.3-4.2 13.4-7.4 2.2-3.1-4.8-4.4-8.1-3.5-3.4 1-10.5 1.8-15.2 2.2-4.7 0.4-5.9 1.6-8.4 7.3-2.4 5.8-2 5.9-5.5 5.3-3.5-0.5-2.4-4.1-1.3-7 1.1-2.9-0.3-5.4-0.3-5.4 0 0-6.2 3.2-13.2 3.3-7.1 0.2-18.9-3.9-22.4-4.4-3.5-0.6-1.8 2.5-1.6 7.1 0.2 4.6-6.7 5-10 7-3.3 1.9-14.4-3.7-14.4-3.7 0 0 13.8-0.1 17.2-2.5 3.4-2.3 2.7-6.6 2.7-6.6 0 0-7.1 3.7-19.3 3.2-12.2-0.5-8.1-0.6-19.8 1.2-11.7 1.7-5.1 6.8-8.7 8.9-3.6 2.1-12.2 0.7-12.2 0.7l12.8-10.2c0 0-2.8-1.1-11.4-0.6-8.5 0.5-18.4 4.6-18.4 4.6 0 0 2.4 2.5 5.1 4.5 2.6 2 1 1.7 0.1 3.9-1 2.2-3.9 0.1-8.2-1.1-4.3-1.2-9.6-0.4-20 4-10.3 4.5-28.1 24.9-28.1 24.9 0 0-0.1-5.1 4.3-10.6 4.3-5.6 15.2-15.7 38.7-29.1 23.4-13.4 49.9-9.9 59.9-8.2 10 1.7 9.8 2.7 16.8-0.6 7-3.3 12.3-4.5 26-3.2 13.7 1.3 26 1.2 26 1.2 0 0 19.3-0.1 33.1-4.8 13.8-4.6 32.3 4.5 54.9 7.8 22.7 3.4 17.4-5.3 28.2-9.6 10.9-4.4 15.1-0.6 26.9-1.8 11.9-1.2 19.2 5 28.7 3.2 9.6-1.7 28.8-0.4 43.5-0.3 14.7 0.1 7.5-3.6 8.2-12.9 0.6-9.2-8.5-28.1-27.6-49.9-19-21.9-54.6-35.5-69-38-14.4-2.4-20.7 8.7-32 17.3-11.3 8.6-36.6 17.2-52.8 20.9-16.3 3.6-32.5 21.5-39.3 23.6-6.7 2.1-17.7 6.2-30 8.1-12.2 1.9-35.1 23.8-39.6 25.7-4.5 1.9-11.9 4.8-14.6 1.6-2.7-3.2 5.3-5.3 16.3-11.6 11-6.2 6.3-8 21.2-16.3 14.8-8.3 32.3-8.5 32.3-8.5-1.9-0.4 12.6-4 20.3-11.4z"/>
			<g id="Mortadella">
				<path id="&lt;Path&gt;" class="s0" d="m457.3 317c-3.5 7-18.9 17.8-42.7 13-23.8-4.7-39.5-28.5-6.8-34.5 32.7-6 45.7 9.1 45.7 9.1 0 0 7.2 5.5 3.8 12.4z"/>
				<path id="&lt;Path&gt;" class="s0" d="m517 333.6c-4.5 5-21 12-38.2 5.8-17.1-6.2-11.8-20.5 3.9-24 15.7-3.5 29.4 4.6 29.4 4.6 0 0 9.4 8.6 4.9 13.6z"/>
				<path id="&lt;Path&gt;" class="s0" d="m398.6 334.7c1.7 2.3-4.9 13.6-18.3 13.8-13.4 0.2-29.5-8.9-16.5-17.4 12.9-8.5 27.9-0.1 27.9-0.1 0 0 5.3 1.4 6.9 3.7z"/>
				<path id="&lt;Path&gt;" class="s0" d="m453.9 278.7c0 0-6.7 10.8-24.5 6.6-17.7-4.1-12.1-17.4-3-19.7 9.2-2.3 25.9-0.3 29.8 2.8 3.9 3-2.3 10.3-2.3 10.3z"/>
				<path id="&lt;Path&gt;" class="s0" d="m492.9 295.5c-0.3 3.3-3.2 5.8-16.5 5.3-13.3-0.5-16.6-9.2-7-13.6 9.7-4.4 19.6 1.9 19.6 1.9 0 0 4.1 3.1 3.9 6.4z"/>
				<path id="&lt;Path&gt;" class="s0" d="m372.8 314.3c-1.2 2.1-10.8 9.4-27.1 3.6-16.3-5.7-6.4-13.7 3.6-16.5 10.1-2.9 21.2 5.9 21.2 5.9 0 0 3.5 4.8 2.3 7z"/>
				<path id="&lt;Path&gt;" class="s0" d="m334.2 336.1c0.5 2.3-4 11.7-21.6 13.6-17.5 1.9-27.3-4.9-27.5-10.9-0.1-6.1 5.3-11.9 22.3-13.4 17-1.6 21.8 4.8 21.8 4.8 0 0 4.5 3.7 5 5.9z"/>
			</g>
		</g>
	</g>
</svg>